<svg width="360" height="800" viewBox="0 0 360 800" fill="none" xmlns="http://www.w3.org/2000/svg">
<rect width="360" height="800" fill="url(#paint0_linear_242_630)"/>
<g clip-path="url(#clip0_242_630)">
<path d="M286.084 486C282.585 479.5 281.784 464.3 300.584 451.5C302.584 450.3 304.418 448.667 305.084 448C306.751 451.167 309.484 459.1 307.084 465.5C304.084 473.5 286.622 485.446 286.084 486Z" fill="white" fill-opacity="0.5" stroke="white" stroke-opacity="0.5"/>
<path d="M290.585 800.5C296.418 774.333 303.685 699.6 286.085 610C268.485 520.4 278.584 490 286.084 485.5" stroke="white" stroke-opacity="0.5" stroke-width="2"/>
<path d="M277.085 511C273.418 509.167 267.285 501.6 272.085 486" stroke="white" stroke-opacity="0.5" stroke-miterlimit="1.30541" stroke-linecap="round" stroke-linejoin="round"/>
<path d="M268.585 485C270.585 487.4 271.251 489.167 271.084 490C272.751 486.667 275.784 479.7 276.584 476.5C281.164 454.058 273.578 451.753 272.656 451.525C273.031 451.812 272.558 454.553 272.084 455.5C271.584 456.5 271.084 458 268.585 461C259.585 473 266.085 482 268.585 485Z" fill="white" fill-opacity="0.5"/>
<path d="M272.656 451.525C273.578 451.753 281.164 454.058 276.584 476.5C275.784 479.7 272.751 486.667 271.084 490C271.251 489.167 270.585 487.4 268.585 485C266.085 482 259.585 473 268.585 461C271.084 458 271.584 456.5 272.084 455.5C272.558 454.553 273.031 451.812 272.656 451.525ZM272.656 451.525C272.571 451.504 272.542 451.5 272.584 451.5C272.611 451.5 272.635 451.508 272.656 451.525Z" stroke="white" stroke-opacity="0.5" stroke-miterlimit="1.30541" stroke-linecap="round" stroke-linejoin="round"/>
<path d="M278.584 557.5C281.084 552.833 286.584 543.1 288.584 541.5C290.584 539.9 296.084 529.5 298.584 524.5" stroke="white" stroke-opacity="0.5" stroke-miterlimit="1.30541" stroke-linecap="round" stroke-linejoin="round"/>
<path d="M298.084 525.5C298.918 522 300.384 514.4 299.584 512C298.584 509 302.084 500 307.084 495C311.084 491 314.418 488.667 315.584 488C318.751 493.833 321.984 508.4 309.584 520C304.784 524 299.918 525.333 298.084 525.5Z" fill="white" fill-opacity="0.5" stroke="white" stroke-opacity="0.5" stroke-miterlimit="1.30541" stroke-linecap="round" stroke-linejoin="round"/>
<path d="M283.084 592C276.918 588 263.284 576.7 258.084 563.5" stroke="white" stroke-opacity="0.5" stroke-miterlimit="1.30541" stroke-linecap="round" stroke-linejoin="round"/>
<path d="M259.084 566C250.251 561.333 234.384 546.3 241.584 523.5C242.384 520.7 242.584 518.667 242.584 518C251.251 521.333 266.684 535.6 259.084 566Z" fill="white" fill-opacity="0.5" stroke="white" stroke-opacity="0.5" stroke-miterlimit="1.30541" stroke-linecap="round" stroke-linejoin="round"/>
<path d="M298.584 729.5C304.418 720.667 317.384 701.5 322.584 695.5C329.084 688 338.084 675 337.084 673" stroke="white" stroke-opacity="0.5" stroke-miterlimit="1.30541" stroke-linecap="round" stroke-linejoin="round"/>
<path d="M334.584 662.5C335.382 666.088 334.755 675.605 334.091 679.958C334.437 678.681 348.466 665.988 349.584 665C362.266 653.8 360.202 633.667 357.584 625C357.084 625.167 355.684 625.6 354.084 626C333.084 640 333.584 658 334.584 662.5Z" fill="white" fill-opacity="0.5"/>
<path d="M334.091 679.958C334.755 675.605 335.382 666.088 334.584 662.5C333.584 658 333.084 640 354.084 626C355.684 625.6 357.084 625.167 357.584 625C360.202 633.667 362.266 653.8 349.584 665C348.466 665.988 334.437 678.681 334.091 679.958ZM334.091 679.958C334.087 679.974 334.084 679.988 334.084 680C334.087 679.986 334.089 679.972 334.091 679.958Z" stroke="white" stroke-opacity="0.5" stroke-miterlimit="1.30541" stroke-linecap="round" stroke-linejoin="round"/>
<path d="M295.084 759C286.418 742.667 274.284 699.5 295.084 657.5C315.884 615.5 319.084 607.333 318.084 608.5V603.5" stroke="white" stroke-opacity="0.5" stroke-miterlimit="1.30541" stroke-linecap="round" stroke-linejoin="round"/>
<path d="M284.584 696C278.584 688.167 266.784 667.9 267.584 649.5" stroke="white" stroke-opacity="0.5" stroke-miterlimit="1.30541" stroke-linecap="round" stroke-linejoin="round"/>
<path d="M267.585 651.5C261.085 648 250.085 633 259.085 607L259.584 605.5C266.418 608.5 278.284 620.9 271.084 646.5C270.284 648.1 268.418 650.5 267.585 651.5Z" fill="white" fill-opacity="0.5" stroke="white" stroke-opacity="0.5" stroke-miterlimit="1.30541" stroke-linecap="round" stroke-linejoin="round"/>
<path d="M273.584 677C265.084 677.333 246.484 675.7 240.084 666.5" stroke="white" stroke-opacity="0.5" stroke-miterlimit="1.30541" stroke-linecap="round" stroke-linejoin="round"/>
<path d="M316.584 613.5C313.584 603.333 308.784 580.5 313.584 570.5C316.084 565 318.084 562.5 323.584 557.5C324.784 556.7 325.084 556.167 325.084 556C331.251 566.667 338.184 593.1 316.584 613.5Z" fill="white" fill-opacity="0.5"/>
<path d="M241.084 668C232.251 666.833 214.684 660.7 215.084 645.5C215.084 642 214.585 634.5 213.085 631.5C211.885 629.1 211.918 628.167 212.085 628C223.751 630.833 245.884 642.8 241.084 668Z" fill="white" fill-opacity="0.5"/>
<path d="M316.584 613.5C313.584 603.333 308.784 580.5 313.584 570.5C316.084 565 318.084 562.5 323.584 557.5C324.784 556.7 325.084 556.167 325.084 556C331.251 566.667 338.184 593.1 316.584 613.5Z" stroke="white" stroke-opacity="0.5" stroke-miterlimit="1.30541" stroke-linecap="round" stroke-linejoin="round"/>
<path d="M241.084 668C232.251 666.833 214.684 660.7 215.084 645.5C215.084 642 214.585 634.5 213.085 631.5C211.885 629.1 211.918 628.167 212.085 628C223.751 630.833 245.884 642.8 241.084 668Z" stroke="white" stroke-opacity="0.5" stroke-miterlimit="1.30541" stroke-linecap="round" stroke-linejoin="round"/>
<path d="M66.5 805.515C65.6667 803.182 64.1 797.815 64.5 795.015C65 791.515 61 777.515 60 776.015C59 774.515 51.5 689.015 58.5 659.015C64.1 635.015 64.5 632.682 64 634.515" stroke="white" stroke-opacity="0.5" stroke-width="2" stroke-miterlimit="1.30541" stroke-linecap="round" stroke-linejoin="round"/>
<path d="M64.5 634.015C65.8333 626.182 68.4 608.915 68 602.515C67.5 594.515 66.5 566.015 63 556.515C61.8 554.515 61.1667 544.682 61 540.015" stroke="white" stroke-opacity="0.5" stroke-miterlimit="1.30541" stroke-linecap="round" stroke-linejoin="round"/>
<path d="M57.5 744.015C60.3333 737.682 69.9998 719.715 81.9998 698.515C93.9998 677.315 93.6665 663.682 91.9998 659.515C90.6665 660.515 87.6998 663.715 86.4998 668.515C84.9998 674.515 84.4998 682.515 68.9998 708.015C56.5998 728.415 55.8333 740.515 57.5 744.015Z" fill="white" fill-opacity="0.5" stroke="white" stroke-opacity="0.5" stroke-miterlimit="1.30541" stroke-linecap="round" stroke-linejoin="round"/>
<path d="M56 697.015C57.1667 692.848 62 680.115 72 662.515C82 644.915 81.8333 631.515 80.5 627.015" stroke="white" stroke-opacity="0.5" stroke-miterlimit="1.30541" stroke-linecap="round" stroke-linejoin="round"/>
<path d="M80.5 627.515H76.5C77.8333 626.682 80.5 624.915 80.5 624.515C80.5 624.015 78 623.515 79 620.015C78 616.015 81.5 608.015 84.5 606.015C87.5 604.015 90.5 610.515 90 611.515C89.5 612.515 90.5 616.015 83.5 624.515C83.5 626.015 87 627.015 86.5 627.515C86.1 627.915 82.3333 627.682 80.5 627.515Z" fill="white" fill-opacity="0.5" stroke="white" stroke-opacity="0.5" stroke-miterlimit="1.30541" stroke-linecap="round" stroke-linejoin="round"/>
<path d="M58.9999 656.515C57.1665 642.848 52.8999 614.615 50.4999 611.015C48.537 608.071 47.4304 600.204 47.0398 593.015C43.0265 589.848 34 582.015 30 576.015C26 570.015 21.6667 559.515 20 555.015C25.6667 562.848 36.7222 575.515 37.5 576.515C38.9911 578.432 42.8417 582.164 46.8867 585.972C46.9033 584.891 46.9413 583.895 46.9999 583.015C47.4999 575.515 42.9999 552.515 38.9999 543.015C35.7999 535.415 41.6666 540.848 44.9999 544.515C48.3333 550.515 54.7 565.315 53.5 576.515C52.4281 581.874 51.9236 586.525 51.7973 590.56C55.4029 593.918 58.4003 596.716 59 597.515C59.6708 598.41 64 608.682 67 616.515L66 621.515C63.9838 615.809 58.7905 604.455 51.9391 597.203C52.6154 605.847 55.0724 610.732 56 613.515C60.4 620.715 62.5 633.515 63 639.015L58.9999 656.515Z" fill="white" fill-opacity="0.5"/>
<path d="M47.0398 593.015C47.4304 600.204 48.537 608.071 50.4999 611.015C52.8999 614.615 57.1665 642.848 58.9999 656.515L63 639.015C62.5 633.515 60.4 620.715 56 613.515C54.5 609.015 49 599.015 53.5 576.515C54.7 565.315 48.3333 550.515 44.9999 544.515C41.6666 540.848 35.7999 535.415 38.9999 543.015C42.9999 552.515 47.4999 575.515 46.9999 583.015C46.827 585.608 46.8334 589.217 47.0398 593.015ZM47.0398 593.015C56.2716 599.015 63.5265 614.515 66 621.515L67 616.515C64 608.682 59.6708 598.41 59 597.515C57.5 595.515 41 581.015 37.5 576.515C36.7222 575.515 25.6667 562.848 20 555.015C21.6667 559.515 26 570.015 30 576.015C34 582.015 43.0265 589.848 47.0398 593.015Z" stroke="white" stroke-opacity="0.5" stroke-miterlimit="1.30541" stroke-linecap="round" stroke-linejoin="round"/>
<path d="M67.5 590.515C71 582.848 77.9 565.315 77.5 556.515C77 545.515 77 546.015 77.5 540.515" stroke="white" stroke-opacity="0.5" stroke-miterlimit="1.30541" stroke-linecap="round" stroke-linejoin="round"/>
<path d="M77 540.515L73.5 541.515L70.5 543.015C69.6666 542.682 68.3 541.815 69.5 541.015C71 540.015 74 538.015 75 538.015C75.8 538.015 75 536.682 74.5 536.015C73.6667 535.682 71.9 534.715 71.5 533.515C71 532.015 70 529.015 70 525.515C69.5 521.515 69 519.015 70.5 516.515C72 514.015 71 515.015 73 513.515C75 512.015 71.5 517.015 73 517.515C74.5 518.015 74 521.515 76.5 522.015C79 522.515 79 522.015 80 522.515C81 523.015 81.5 525.015 81.5 525.515C81.5 526.015 81 531.015 80.5 531.515C80 532.015 79 535.015 79.5 535.515C80 536.015 80 538.015 81.5 539.015C83 540.015 85.5 539.515 85.5 540.015C85.5 540.515 86.5 541.015 85.5 541.515C84.5 542.015 84 542.015 83 541.515C82 541.015 82 541.015 81 541.015C80 541.015 81 541.015 80.5 542.015C80 543.015 78 543.515 78 543.015C78 542.615 77.3333 541.515 77 541.015V540.515Z" fill="white" fill-opacity="0.5"/>
<path d="M80.5 513.015C79 512.848 75.8 512.715 75 513.515C74.2 514.315 74.3333 515.182 74.5 515.515C74.8333 515.682 75.4 516.215 75 517.015C74.5 518.015 75 518.515 75 519.015C75 519.515 76.5 521.515 77.5 521.515C78.5 521.515 79.5 521.515 80.5 522.015C82 523.015 82 524.515 82 525.515C82 526.315 81.6667 528.848 81.5 530.015L82.5 528.015L86 523.515C86.5 522.848 88.2 520.915 91 518.515C92.1999 516.915 81.0024 513.183 80.5 513.015Z" fill="white" fill-opacity="0.5"/>
<path d="M80.5 513.015C79 512.848 75.8 512.715 75 513.515C74.2 514.315 74.3333 515.182 74.5 515.515C74.8333 515.682 75.4 516.215 75 517.015C74.5 518.015 75 518.515 75 519.015C75 519.515 76.5 521.515 77.5 521.515C78.5 521.515 79.5 521.515 80.5 522.015C82 523.015 82 524.515 82 525.515C82 526.315 81.6667 528.848 81.5 530.015L82.5 528.015L86 523.515C86.5 522.848 88.2 520.915 91 518.515M80.5 513.015C81 513.182 92.2 516.915 91 518.515M80.5 513.015C81.0024 513.183 92.1999 516.915 91 518.515M77 540.515L73.5 541.515L70.5 543.015C69.6666 542.682 68.3 541.815 69.5 541.015C71 540.015 74 538.015 75 538.015C75.8 538.015 75 536.682 74.5 536.015C73.6667 535.682 71.9 534.715 71.5 533.515C71 532.015 70 529.015 70 525.515C69.5 521.515 69 519.015 70.5 516.515C72 514.015 71 515.015 73 513.515C75 512.015 71.5 517.015 73 517.515C74.5 518.015 74 521.515 76.5 522.015C79 522.515 79 522.015 80 522.515C81 523.015 81.5 525.015 81.5 525.515C81.5 526.015 81 531.015 80.5 531.515C80 532.015 79 535.015 79.5 535.515C80 536.015 80 538.015 81.5 539.015C83 540.015 85.5 539.515 85.5 540.015C85.5 540.515 86.5 541.015 85.5 541.515C84.5 542.015 84 542.015 83 541.515C82 541.015 82 541.015 81 541.015C80 541.015 81 541.015 80.5 542.015C80 543.015 78 543.515 78 543.015C78 542.615 77.3333 541.515 77 541.015V540.515Z" stroke="white" stroke-opacity="0.5" stroke-width="0.1" stroke-miterlimit="1.30541" stroke-linecap="round" stroke-linejoin="round"/>
<path d="M83.0001 539.515C81.8334 539.182 81.7001 537.115 86.5001 533.515C92.5001 529.015 94.0001 522.015 93.5001 520.015C93.1001 518.415 90.6668 520.348 89.5001 521.515C88.3334 522.682 85.4001 525.715 83.0001 528.515C80.6001 531.315 79.6668 534.348 79.5001 535.515C79.6954 536.882 79 538.015 80.0001 539.015C81.0002 540.015 83.0001 539.515 83.0001 539.515Z" fill="white" fill-opacity="0.5" stroke="white" stroke-opacity="0.5" stroke-width="0.1" stroke-miterlimit="1.30541" stroke-linecap="round" stroke-linejoin="round"/>
<path d="M22.9999 510.515C20.1999 510.515 22.4999 512.848 23.9999 514.015C26.8333 514.515 32.6 515.815 33 517.015C33.5 518.515 43 518.515 44.5 518.515C45.7 518.515 47.3333 516.515 48 515.515C41.6 510.315 33 509.157 29.5 509.227C28.5365 509.941 23.7578 510.515 22.9999 510.515Z" fill="white" fill-opacity="0.5"/>
<path d="M57.9999 523.015C56.7999 517.815 59.1666 512.515 60.4999 510.515C62.1666 508.515 65.5999 504.315 65.9999 503.515C66.4999 502.515 66.9999 497.015 64.4999 491.015C61.9999 485.015 56.4999 481.015 54.9999 481.015C55.5 482.015 56.3 484.515 55.5 486.515C54.7 488.515 55.5 494.348 56 497.015C55.1667 495.348 53.5 491.415 53.5 489.015C53.5 486.07 45.7884 491.8 49.7667 499.107C49.867 499.267 49.9454 499.406 50 499.515C50.5 500.515 50 503.015 51.5 506.515C53 510.015 53 517.015 48 515.515C45.8333 518.848 41.8999 525.415 43.4999 525.015C45.5 524.515 50 516.015 52 517.015C54 518.015 54.9999 520.015 54.9999 522.015C54.9999 523.615 56.9999 523.348 57.9999 523.015Z" fill="white" fill-opacity="0.5"/>
<path d="M26.9443 503.487C26.9631 503.497 26.9816 503.506 26.9999 503.515C26.6799 504.795 26.6057 507.489 28.7246 508.41C29.1421 508.392 29.5509 508.38 29.9515 508.374C38.4501 508.245 43.225 510.74 48 515.515C53 517.015 53 510.015 51.5 506.515C50 503.015 50.5 500.515 50 499.515C49.9182 499.379 49.8404 499.243 49.7667 499.107C48.9483 497.805 46.6726 495.124 44 496.015C43.1461 496.3 41.8873 496.382 40.5 496.331C39.2035 496.283 37.7949 496.118 36.5 495.894C34.3124 495.515 32.4494 494.964 32 494.515C31 493.515 27.4999 494.015 26.9999 495.515C26.5193 496.957 26.5007 503.021 26.9443 503.487Z" fill="white" fill-opacity="0.5"/>
<path d="M29.9999 482.015C27.4999 481.015 22.9999 489.515 22.9999 496.515C22.9999 500.46 25.5939 502.784 26.9443 503.487C26.5007 503.021 26.5193 496.957 26.9999 495.515C27.4999 494.015 31 493.515 32 494.515C32.4494 494.964 34.3124 495.515 36.5 495.894C34.1 492.997 33.125 487.434 32.9374 485.015C32.2499 484.015 31.2499 482.515 29.9999 482.015Z" fill="white" fill-opacity="0.5"/>
<path d="M55.5 486.515C56.3 484.515 55.5 482.015 54.9999 481.015C54 479.515 51.2 476.215 48 475.015C44 473.515 44.5 478.015 43 478.515C41.5 479.015 41.5 477.015 39.5 477.015C37.5 477.015 35 477.515 34.5 482.515C34 487.515 34.5 486.515 35.5 490.515C36.5 494.515 37.5 494.515 38 495.015C38.4 495.415 39.8333 496.059 40.5 496.331C42.1667 495.559 45.3 493.915 44.5 493.515C43.5 493.015 39 492.015 39.5 491.015C39.9 490.215 43 491.348 44.5 492.015C45 492.348 46.1 492.915 46.5 492.515C50 485.015 55.3333 485.848 55.5 486.515Z" fill="white" fill-opacity="0.5"/>
<path d="M60.9999 540.515C60.4999 536.848 59.1999 528.215 57.9999 523.015M57.9999 523.015C56.7999 517.815 59.1666 512.515 60.4999 510.515C62.1666 508.515 65.5999 504.315 65.9999 503.515C66.4999 502.515 66.9999 497.015 64.4999 491.015C61.9999 485.015 56.4999 481.015 54.9999 481.015M57.9999 523.015C56.9999 523.348 54.9999 523.615 54.9999 522.015C54.9999 520.015 54 518.015 52 517.015C50 516.015 45.5 524.515 43.4999 525.015C41.8999 525.415 45.8333 518.848 48 515.515M54.9999 481.015C55.4999 482.015 56.3 484.515 55.5 486.515M54.9999 481.015C53.9999 479.515 51.2 476.215 48 475.015C44 473.515 44.5 478.015 43 478.515C41.5 479.015 41.5 477.015 39.5 477.015C37.5 477.015 35 477.515 34.5 482.515C34 487.515 34.5 486.515 35.5 490.515C36.5 494.515 37.5 494.515 38 495.015C38.4 495.415 39.8333 496.059 40.5 496.331M26.9999 503.515C26.6799 504.795 26.6057 507.489 28.7246 508.41M26.9999 503.515C26.9816 503.506 26.9631 503.497 26.9443 503.487M26.9999 503.515C26.9806 503.515 26.9621 503.505 26.9443 503.487M30.5587 508.363C30.5225 508.351 30.2639 508.36 29.9515 508.374M48 515.515C47.3333 516.515 45.7 518.515 44.5 518.515C43 518.515 33.5 518.515 33 517.015C32.6 515.815 26.8333 514.515 23.9999 514.015C22.4999 512.848 20.1999 510.515 22.9999 510.515C23.7578 510.515 28.5365 509.941 29.5 509.227C33 509.157 41.6 510.315 48 515.515ZM48 515.515C53 517.015 53 510.015 51.5 506.515C50 503.015 50.5 500.515 50 499.515M48 515.515C43.225 510.74 38.4501 508.245 29.9515 508.374M28.7246 508.41C29.1421 508.392 29.5509 508.38 29.9515 508.374M28.7246 508.41C28.7793 508.434 29.438 508.397 29.9515 508.374M50 499.515C49.9454 499.406 49.867 499.267 49.7667 499.107M50 499.515C49.9182 499.379 49.8404 499.243 49.7667 499.107M36.5 495.894C34.3124 495.515 32.4494 494.964 32 494.515C31 493.515 27.4999 494.015 26.9999 495.515C26.5193 496.957 26.5007 503.021 26.9443 503.487M36.5 495.894C34.1 492.997 33.125 487.434 32.9374 485.015C32.2499 484.015 31.2499 482.515 29.9999 482.015C27.4999 481.015 22.9999 489.515 22.9999 496.515C22.9999 500.46 25.5939 502.784 26.9443 503.487M36.5 495.894C37.7949 496.118 39.2035 496.283 40.5 496.331M55.5 486.515C54.7 488.515 55.5 494.348 56 497.015C55.1667 495.348 53.5 491.415 53.5 489.015C53.5 486.07 45.7884 491.8 49.7667 499.107M55.5 486.515C55.3333 485.848 50 485.015 46.5 492.515C46.1 492.915 45 492.348 44.5 492.015C43 491.348 39.9 490.215 39.5 491.015C39 492.015 43.5 493.015 44.5 493.515C45.3 493.915 42.1667 495.559 40.5 496.331M49.7667 499.107C48.9483 497.805 46.6725 495.124 44 496.015C43.1461 496.3 41.8873 496.382 40.5 496.331" stroke="white" stroke-opacity="0.5" stroke-width="0.5" stroke-miterlimit="1.30541" stroke-linecap="round" stroke-linejoin="round"/>
<path d="M61 540.015C62 535.682 63.5 528.224 63.5 519.015C63.5 507.515 61 498.015 63.5 482.015C64.3333 478.848 66.1 472.515 66.5 472.515C66.9 472.515 67.3333 472.182 67.5 472.015V471.015" stroke="white" stroke-opacity="0.5" stroke-width="0.5" stroke-miterlimit="1.30541" stroke-linecap="round" stroke-linejoin="round"/>
<path d="M66.5 472.515C66.5 471.682 66.3 469.915 65.5 469.515C64.5 469.015 60.5 469.515 59.5 469.515C58.5 469.515 60 468.015 60 467.515C60 467.115 63.3333 467.349 65 467.515C64.8333 462.182 65.9 451.415 71.5 451.015C78.5 450.515 68.5 462.515 68.5 464.515C68.5 465.209 68.4154 466.115 68.5 467.015C69.9509 463.848 73.4 457.015 75 455.015C77 452.515 80 457.515 79 458.015C78 458.515 84 461.515 71.5 470.015C71 470.515 73.5 472.015 73 473.015C72.5 474.015 72 474.015 71.5 473.515C71 473.015 70 469.515 66.5 472.515Z" fill="white" fill-opacity="0.5"/>
<path d="M69 470.015C68.9056 469.354 68.6105 468.191 68.5 467.015M68.5 467.015C68.4154 466.115 68.5 465.209 68.5 464.515C68.5 462.515 78.5 450.515 71.5 451.015C65.9 451.415 64.8333 462.182 65 467.515C63.3333 467.349 60 467.115 60 467.515C60 468.015 58.5 469.515 59.5 469.515C60.5 469.515 64.5 469.015 65.5 469.515C66.3 469.915 66.5 471.682 66.5 472.515C70 469.515 71 473.015 71.5 473.515C72 474.015 72.5 474.015 73 473.015C73.5 472.015 71 470.515 71.5 470.015C84 461.515 78 458.515 79 458.015C80 457.515 77 452.515 75 455.015C73.4 457.015 69.9509 463.848 68.5 467.015ZM64 516.515C67.5 512.182 74.2 502.815 73 500.015C71.8 497.215 75.5 493.848 77.5 492.515" stroke="white" stroke-opacity="0.5" stroke-width="0.5" stroke-miterlimit="1.30541" stroke-linecap="round" stroke-linejoin="round"/>
<path d="M73.5 492.515H77.5C77.6667 493.015 78.1 494.215 78.5 495.015C79 496.015 79.5 493.515 80.5 493.515C81.5 493.515 79.5 489.015 80.5 489.515C81.5 490.015 83 486.015 83.5 486.015C84 486.015 88 474.015 83.5 475.515C79 477.015 82.5 475.515 79.5 477.515C77.1372 479.09 78.1344 485.964 78.9611 489.357C78.9882 489.41 79 489.464 79 489.515C78.9871 489.463 78.9741 489.411 78.9611 489.357C78.8112 489.068 78.193 488.838 76.5 489.515C74.5 490.315 73.6667 491.848 73.5 492.515Z" fill="white" fill-opacity="0.5"/>
<path d="M78.9611 489.357C78.1344 485.964 77.1372 479.09 79.5 477.515C82.5 475.515 79 477.015 83.5 475.515C88 474.015 84 486.015 83.5 486.015C83 486.015 81.5 490.015 80.5 489.515C79.5 489.015 81.5 493.515 80.5 493.515C79.5 493.515 79 496.015 78.5 495.015C78.1 494.215 77.6667 493.015 77.5 492.515H73.5C73.6667 491.848 74.5 490.315 76.5 489.515C78.193 488.838 78.8112 489.068 78.9611 489.357ZM78.9611 489.357C78.9882 489.41 79 489.464 79 489.515C78.9871 489.463 78.9741 489.411 78.9611 489.357Z" stroke="white" stroke-opacity="0.5" stroke-width="0.5" stroke-miterlimit="1.30541" stroke-linecap="round" stroke-linejoin="round"/>
<path d="M185 2.48328C186.333 21.3166 188.2 61.1833 185 69.9833C182.736 76.2087 184.316 89.3205 185.751 99.9833C186.852 108.161 187.868 114.898 187 115.983C185 118.483 171 174.483 185 243.483C187 254.983 189.5 256.983 190 265.483C190.4 272.283 193.167 277.983 194.5 279.983" stroke="white" stroke-opacity="0.5" stroke-width="2"/>
<path d="M184.5 98.9833C182.5 111.65 171.2 137.883 142 141.483C130.5 142.983 114.5 153.483 113 154.483" stroke="white" stroke-opacity="0.5"/>
<path d="M187.5 117.483C190.5 123.317 198.3 136.783 205.5 143.983" stroke="white" stroke-opacity="0.5"/>
<path d="M180 151.483C178.667 156.483 173.4 170.083 163 184.483C152.6 198.883 144 209.15 141 212.483" stroke="white" stroke-opacity="0.5"/>
<path d="M227 219.483C231 225.983 239.6 239.683 242 242.483C245 245.983 249 249.983 248.5 251.483" stroke="white" stroke-opacity="0.5"/>
<path d="M182 221.983C186.667 224.983 196.6 231.683 199 234.483C199.296 234.829 199.691 235.162 200.165 235.483M214.5 239.983C210.847 239.399 203.531 237.764 200.165 235.483M200.165 235.483C201.443 241.817 206.7 256.483 217.5 264.483" stroke="white" stroke-opacity="0.5"/>
<path d="M186 57.9832C177 66.8166 159.1 87.4832 159.5 99.4832C159.9 111.483 162 113.15 163 112.483C169 102.817 181.4 81.8833 183 75.4833C183.639 72.9274 184.193 70.127 184.649 67.4833C184.827 66.4515 184.99 65.4435 185.138 64.4833C185.558 61.7432 185.852 59.3917 186 57.9832Z" fill="white" fill-opacity="0.5"/>
<path d="M185.138 64.4833C185.558 61.7432 185.852 59.3917 186 57.9832C177 66.8166 159.1 87.4832 159.5 99.4832C159.9 111.483 162 113.15 163 112.483C169 102.817 181.4 81.8833 183 75.4833C183.639 72.9274 184.193 70.127 184.649 67.4833M185.138 64.4833C178.425 71.8166 164.8 88.6833 164 97.4833C165.766 92.3166 172.368 79.0833 184.649 67.4833M185.138 64.4833C184.99 65.4435 184.827 66.4515 184.649 67.4833" stroke="white" stroke-opacity="0.5" stroke-width="0.5" stroke-linecap="round"/>
<path d="M127 135.483C129.4 134.283 133.333 139.983 135 142.983L127 145.983C125.333 145.817 121.8 144.783 121 141.983C120 138.483 124 136.983 127 135.483Z" fill="white" fill-opacity="0.5" stroke="white" stroke-opacity="0.5" stroke-width="0.5" stroke-linecap="round"/>
<path d="M125.5 153.983C134.7 161.983 136.333 150.317 136 143.483L125 147.983C124.5 148.983 123.9 151.583 125.5 153.983Z" fill="white" fill-opacity="0.5" stroke="white" stroke-opacity="0.5" stroke-width="0.5" stroke-linecap="round"/>
<path d="M106 141.983C100.4 138.783 101.333 142.317 102.5 144.483C103.187 144.913 104.599 145.908 106.573 147.483C107.215 146.15 108 143.183 106 141.983Z" fill="white" fill-opacity="0.5"/>
<path d="M113.5 153.483C110.785 150.962 108.43 148.966 106.573 147.483M106.573 147.483C104.599 145.908 103.187 144.913 102.5 144.483C101.333 142.317 100.4 138.783 106 141.983C108 143.183 107.215 146.15 106.573 147.483Z" stroke="white" stroke-opacity="0.5" stroke-width="0.5" stroke-linecap="round"/>
<path d="M97.7778 158.61C100.978 160.21 109.444 156.277 113.278 154.11C113.111 154.11 112.278 154.21 110.278 154.61C108.278 155.01 105.444 154.444 104.278 154.11C101.611 152.777 95.9778 150.61 94.7778 152.61C93.2778 155.11 93.7778 156.61 97.7778 158.61Z" fill="white" fill-opacity="0.5" stroke="white" stroke-opacity="0.5" stroke-width="0.5" stroke-linecap="round"/>
<path d="M105 187.483C105.5 184.483 111.5 178.983 112.5 175.483C112.5 178.15 112.4 183.883 112 185.483C111.5 187.983 109 193.983 107.5 193.483C106 192.983 104.5 190.483 105 187.483Z" fill="white" fill-opacity="0.5"/>
<path d="M113 154.483C113.167 160.317 113.3 172.683 112.5 175.483M112.5 175.483C111.5 178.983 105.5 184.483 105 187.483C104.5 190.483 106 192.983 107.5 193.483C109 193.983 111.5 187.983 112 185.483C112.4 183.883 112.5 178.15 112.5 175.483Z" stroke="white" stroke-opacity="0.5" stroke-width="0.5" stroke-linecap="round"/>
<path d="M124.5 188.483C123.5 188.483 120.5 186.483 119 179.983C119.333 179.983 120.4 180.183 122 180.983C128.5 185.483 125.5 188.483 124.5 188.483Z" fill="white" fill-opacity="0.5"/>
<path d="M113 171.483C114.5 172.15 117.8 174.783 119 179.983M119 179.983C120.5 186.483 123.5 188.483 124.5 188.483C125.5 188.483 128.5 185.483 122 180.983C120.4 180.183 119.333 179.983 119 179.983Z" stroke="white" stroke-opacity="0.5" stroke-width="0.5" stroke-linecap="round"/>
<path d="M102.5 171.483C101.167 173.65 98.9999 178.083 101 178.483C103.5 178.983 106.5 177.483 106.5 175.983C106.5 174.483 109 168.983 108 166.983C107.533 166.049 107.332 165.638 107.263 165.49C107.265 165.488 107.267 165.486 107.269 165.483C107.232 165.414 107.213 165.385 107.263 165.49C104.211 168.874 102.836 170.811 102.5 171.483Z" fill="white" fill-opacity="0.5"/>
<path d="M113 159.483C110.642 161.841 108.757 163.834 107.269 165.483M107.269 165.483C104.213 168.872 102.836 170.811 102.5 171.483C101.167 173.65 98.9999 178.083 101 178.483C103.5 178.983 106.5 177.483 106.5 175.983C106.5 174.483 109 168.983 108 166.983C107.2 165.383 107.179 165.317 107.269 165.483Z" stroke="white" stroke-opacity="0.5" stroke-width="0.5" stroke-linecap="round"/>
<path d="M147.5 151.483C146.7 148.283 152.5 141.15 155.5 137.983C157.167 137.15 160.5 135.583 160.5 135.983C162 141.983 148.5 155.483 147.5 151.483Z" fill="white" fill-opacity="0.5" stroke="white" stroke-opacity="0.5" stroke-width="0.5" stroke-linecap="round"/>
<path d="M166 148.483C165.5 145.983 168 145.483 169 143.483C170.667 145.15 174.7 149.083 175.5 151.483C176.3 153.883 174.167 156.483 173 157.483C172.333 157.983 170.4 158.283 168 155.483C165 151.983 166.5 150.983 166 148.483Z" fill="white" fill-opacity="0.5"/>
<path d="M168 129.983C168.667 133.817 169.8 141.883 169 143.483M169 143.483C168 145.483 165.5 145.983 166 148.483C166.5 150.983 165 151.983 168 155.483C170.4 158.283 172.333 157.983 173 157.483C174.167 156.483 176.3 153.883 175.5 151.483C174.7 149.083 170.667 145.15 169 143.483Z" stroke="white" stroke-opacity="0.5" stroke-width="0.5" stroke-linecap="round"/>
<path d="M179.5 184.983C185.167 194.483 202.3 214.583 225.5 218.983C241.1 222.183 247.667 228.983 249 231.983" stroke="white" stroke-opacity="0.5"/>
<path fill-rule="evenodd" clip-rule="evenodd" d="M202 140.483L202.114 140.794C208.153 157.234 220.23 190.111 225 194.483C231 199.983 239 206.483 241 205.983C243 205.483 244 205.483 244 204.483V202.483C244 199.817 243.8 194.083 243 192.483C242 190.483 236 173.983 230 167.483C224 160.983 212.52 149.199 208.5 145.983C206 143.983 203 141.65 202 140.483ZM209.026 152.093C208.324 150.774 207.647 149.495 207 148.266C206.838 148.231 207.606 149.654 209.026 152.093C219.185 171.186 234.535 198.579 239 200.983C230.232 186.919 214.603 161.673 209.026 152.093Z" fill="white" fill-opacity="0.5"/>
<path d="M202 140.483C203 141.65 206 143.983 208.5 145.983C212.52 149.199 224 160.983 230 167.483C236 173.983 242 190.483 243 192.483C243.8 194.083 244 199.817 244 202.483M202 140.483L202.114 140.794M202 140.483C202.038 140.586 202.076 140.69 202.114 140.794M244 204.483C244 205.483 243 205.483 241 205.983C239 206.483 231 199.983 225 194.483C220.23 190.111 208.153 157.234 202.114 140.794M244 204.483C244 203.683 244 202.817 244 202.483M244 204.483V202.483M204.5 143.483C205.266 144.961 206.104 146.565 207 148.266M207 148.266C207.647 149.495 208.324 150.774 209.026 152.093M207 148.266C206.838 148.231 207.606 149.654 209.026 152.093M209.026 152.093C219.185 171.186 234.535 198.579 239 200.983C230.232 186.919 214.603 161.673 209.026 152.093Z" stroke="white" stroke-opacity="0.5" stroke-width="0.5" stroke-linecap="round"/>
<path d="M206.5 222.483C205.3 216.483 202 210.317 200.5 207.983C201 207.65 204.1 208.683 212.5 215.483C223 223.983 218 229.983 217 229.983C216 229.983 208 229.983 206.5 222.483Z" fill="white" fill-opacity="0.5" stroke="white" stroke-opacity="0.5" stroke-width="0.5" stroke-linecap="round"/>
<path d="M266.5 241.483C258.1 248.283 245.667 232.65 240.5 223.983C242.5 224.445 247.6 225.091 252 223.983C261.2 219.983 264.167 223.24 264.5 225.368C265.159 225.528 265.827 225.731 266.5 225.983C272.9 228.383 268.5 232.308 265.5 233.971C269.155 236.459 267.256 239.971 266.5 241.483Z" fill="white" fill-opacity="0.5"/>
<path d="M249.5 228.983C249.5 228.983 255 231.031 260 231.983C262.562 232.471 264.32 233.168 265.5 233.971M265.5 233.971C269.155 236.459 267.256 239.971 266.5 241.483C258.1 248.283 245.667 232.65 240.5 223.983C242.5 224.445 247.6 225.091 252 223.983C261.2 219.983 264.167 223.24 264.5 225.368M265.5 233.971C268.5 232.308 272.9 228.383 266.5 225.983C265.827 225.731 265.159 225.528 264.5 225.368M252 226.983C253.939 225.79 258.894 224.01 264.5 225.368" stroke="white" stroke-opacity="0.5" stroke-width="0.5" stroke-linecap="round"/>
<path d="M248 262.483C248.4 258.883 246.167 249.983 245 245.983L248 248.983C249.5 248.65 252.8 248.183 254 248.983C260 252.583 258.167 255.15 256.5 255.983C256 256.983 252 254.983 252.5 256.483C253 257.983 253 263.983 252 264.983C251 265.983 247.5 266.983 248 262.483Z" fill="white" fill-opacity="0.5" stroke="white" stroke-opacity="0.5" stroke-width="0.5" stroke-linecap="round"/>
<path fill-rule="evenodd" clip-rule="evenodd" d="M149.5 202.483C147 213.65 137.2 236.783 118 239.983C115.5 240.483 122 218.483 141 205.983C146.2 203.183 148.833 202.483 149.5 202.483ZM123.5 234.483C131.1 228.308 140 216.077 141.5 212.483L141 211.983C138.2 217.183 126.833 230.483 123.5 234.483Z" fill="white" fill-opacity="0.5" stroke="white" stroke-opacity="0.5" stroke-width="0.5" stroke-linecap="round"/>
<path d="M151.5 244.983C145.1 224.983 149.833 205.65 153 198.483C156.343 194.634 159.09 191.113 161.338 187.983C158.392 196.983 152.9 216.583 154.5 222.983C154.5 219.886 156.1 208.221 162.5 186.337C170.284 175.112 171.261 169.558 170.5 172.983C169.5 177.483 170.5 191.483 170.5 195.983C169.7 213.183 157.5 235.817 151.5 244.983Z" fill="white" fill-opacity="0.5"/>
<path d="M161.338 187.983C159.09 191.113 156.343 194.634 153 198.483C149.833 205.65 145.1 224.983 151.5 244.983C157.5 235.817 169.7 213.183 170.5 195.983C170.5 191.483 169.5 177.483 170.5 172.983C171.261 169.558 170.284 175.112 162.5 186.337M161.338 187.983C158.392 196.983 152.9 216.583 154.5 222.983C154.5 219.886 156.1 208.221 162.5 186.337M161.338 187.983C161.741 187.422 162.128 186.873 162.5 186.337" stroke="white" stroke-opacity="0.5" stroke-width="0.5" stroke-linecap="round"/>
<path d="M252.5 256.483L260 266.983" stroke="white" stroke-opacity="0.5" stroke-width="0.5" stroke-linecap="round"/>
<path d="M258.5 276.483C255.3 274.483 258.167 268.983 260 266.483H263C268 266.483 268 271.483 265 270.983C263.222 270.687 262.249 271.47 261.796 272.235C261.638 272.502 261.543 272.767 261.5 272.983C261.833 274.983 261.7 278.483 258.5 276.483Z" fill="white" fill-opacity="0.5"/>
<path d="M260 269.483V266.483M260 266.483C258.167 268.983 255.3 274.483 258.5 276.483C261.7 278.483 261.833 274.983 261.5 272.983C261.667 272.15 262.6 270.583 265 270.983C268 271.483 268 266.483 263 266.483C259 266.483 259.333 266.483 260 266.483ZM261 270.983L264.5 276.483" stroke="white" stroke-opacity="0.5" stroke-width="0.5" stroke-linecap="round"/>
<path d="M224.5 249.983C220.5 247.583 212.5 241.65 209 238.983C229 238.983 230.5 246.983 231 248.483C231.5 249.983 229.5 252.983 224.5 249.983Z" fill="white" fill-opacity="0.5"/>
<path d="M223 272.483C219 269.983 217 273.483 213 268.983C212.2 269.783 212.667 273.65 213 275.483C217 284.983 221.5 283.983 224.5 283.483C227.5 282.983 227 274.983 223 272.483Z" fill="white" fill-opacity="0.5"/>
<path d="M217.5 270.483L217 264.483H217.5C235 267.483 227.5 276.983 227 275.483C224.2 270.683 219.5 270.15 217.5 270.483Z" fill="white" fill-opacity="0.5"/>
<path d="M186.5 248.483C194 253.817 209.8 265.383 213 268.983M213 268.983C217 273.483 219 269.983 223 272.483C227 274.983 227.5 282.983 224.5 283.483C221.5 283.983 217 284.983 213 275.483C212.667 273.65 212.2 269.783 213 268.983ZM209 238.983C212.5 241.65 220.5 247.583 224.5 249.983C229.5 252.983 231.5 249.983 231 248.483C230.5 246.983 229 238.983 209 238.983ZM217 264.483L217.5 270.483C219.5 270.15 224.2 270.683 227 275.483C227.5 276.983 235 267.483 217.5 264.483H217Z" stroke="white" stroke-opacity="0.5" stroke-width="0.5" stroke-linecap="round"/>
<path d="M183.5 238.983C180.833 246.65 175.1 262.583 173.5 264.983C171.5 267.983 158.5 283.983 156 287.983C153.5 291.983 150 296.983 152.5 300.983" stroke="white" stroke-opacity="0.5" stroke-width="0.5" stroke-linecap="round"/>
<path d="M151.5 296.483C149 299.817 145.7 307.283 152.5 310.483C161 314.483 154 295.983 151.5 296.483Z" fill="white" fill-opacity="0.5"/>
<path d="M137 297.483C138.2 297.883 139.833 297.65 140.5 297.483C141.727 297.729 145.65 295.228 149.5 292.449C149.167 292.687 148 293.127 146 292.983C143.5 292.804 140.5 292.983 138.5 292.983C136.5 292.983 135.5 296.983 137 297.483Z" fill="white" fill-opacity="0.5"/>
<path d="M156 287.483C154.325 288.836 151.927 290.698 149.5 292.449M149.5 292.449C145.65 295.228 141.727 297.729 140.5 297.483C139.833 297.65 138.2 297.883 137 297.483C135.5 296.983 136.5 292.983 138.5 292.983C140.5 292.983 143.5 292.804 146 292.983C148 293.127 149.167 292.687 149.5 292.449ZM151.5 296.483C149 299.817 145.7 307.283 152.5 310.483C161 314.483 154 295.983 151.5 296.483Z" stroke="white" stroke-opacity="0.5" stroke-width="0.5" stroke-linecap="round"/>
<path d="M177.5 272.483C176.7 270.483 176.5 261.983 176.5 257.983C175.333 258.483 172 259.783 168 260.983C155.5 261.983 159.5 270.983 162.5 271.983C164.9 272.783 167.833 271.65 169 270.983C167.5 272.317 165 275.983 167 279.983C174.5 290.983 178.5 274.983 177.5 272.483Z" fill="white" fill-opacity="0.5" stroke="white" stroke-opacity="0.5" stroke-width="0.5" stroke-linecap="round"/>
<path d="M208.5 288.483C205.7 285.683 198.333 281.317 195 279.483C194.333 278.65 192.9 277.183 192.5 277.983C192 278.983 195 298.483 194 298.983C193 299.483 197.5 307.483 201.5 309.483C205.5 311.483 211 309.483 213 305.483C215 301.483 212 291.983 208.5 288.483Z" fill="white" fill-opacity="0.5" stroke="white" stroke-opacity="0.5" stroke-width="0.5" stroke-linecap="round"/>
<path d="M189.5 310.983C183.5 304.183 189.667 295.15 193.5 291.483C194.167 293.65 195.6 299.283 196 304.483C196.5 310.983 191 311.983 189.5 310.983Z" fill="white" fill-opacity="0.5" stroke="white" stroke-opacity="0.5" stroke-width="0.5" stroke-linecap="round"/>
<path d="M197 328.983C195 331.983 191.5 338.483 196.5 338.983C200.5 339.383 198.5 332.483 197 328.983Z" fill="white" fill-opacity="0.5"/>
<path d="M197 303.483C197.667 310.983 198.6 326.583 197 328.983M197 328.983C195 331.983 191.5 338.483 196.5 338.983C200.5 339.383 198.5 332.483 197 328.983Z" stroke="white" stroke-opacity="0.5" stroke-width="0.5" stroke-linecap="round"/>
<path d="M205.5 323.983C206.5 323.983 215 325.983 210 331.483C208 333.483 205 326.483 205.5 323.983Z" fill="white" fill-opacity="0.5"/>
<path d="M160 251.483C157 249.983 161 247.983 161.5 246.483C161.716 245.836 165.535 245.741 170 245.871C167.667 248.241 162.4 252.683 160 251.483Z" fill="white" fill-opacity="0.5"/>
<path d="M198 316.483C200.167 318.983 204.7 323.983 205.5 323.983M205.5 323.983C206.5 323.983 215 325.983 210 331.483C208 333.483 205 326.483 205.5 323.983ZM181 246.483C178.085 246.253 173.808 245.981 170 245.871M170 245.871C165.535 245.741 161.716 245.836 161.5 246.483C161 247.983 157 249.983 160 251.483C162.4 252.683 167.667 248.241 170 245.871Z" stroke="white" stroke-opacity="0.5" stroke-width="0.5" stroke-linecap="round"/>
</g>
<defs>
<linearGradient id="paint0_linear_242_630" x1="180" y1="0" x2="180" y2="800" gradientUnits="userSpaceOnUse">
<stop stop-color="#7F5539"/>
<stop offset="1" stop-color="#606134"/>
</linearGradient>
<clipPath id="clip0_242_630">
<rect width="360" height="800" fill="white"/>
</clipPath>
</defs>
</svg>
